Coordinates
version=1
nRows=29
nColumns=24
inDegrees=yes

Units are S.I. units (second, meters, Newtons, ...)
Angles are in degrees.

endheader
time	pelvis_tilt	pelvis_list	pelvis_rotation	pelvis_tx	pelvis_ty	pelvis_tz	hip_flexion_r	hip_adduction_r	hip_rotation_r	knee_angle_r	ankle_angle_r	subtalar_angle_r	mtp_angle_r	hip_flexion_l	hip_adduction_l	hip_rotation_l	knee_angle_l	ankle_angle_l	subtalar_angle_l	mtp_angle_l	lumbar_extension	lumbar_bending	lumbar_rotation
      1.58350000	      1.90552953	      3.31446942	     -3.36474026	      0.44975010	      1.07084027	      0.30682352	     11.19818119	     -5.77725998	     -2.87816617	    -63.51292159	     -4.37067442	    -11.95402810	     -1.79455314	      4.05564541	      8.93289946	     -2.21380630	     -6.34278222	      0.59839851	     -1.19508818	     -1.66452489	      3.83352079	     -1.22651841	     -0.02701960
      1.58766667	      1.95746087	      3.25946371	     -3.26982630	      0.45456577	      1.07149414	      0.30670719	     11.71872670	     -5.66955591	     -2.71236652	    -63.34278777	     -3.82139256	    -12.16472471	     -1.82314287	      3.57483400	      8.90422281	     -2.04712251	     -6.09945464	      0.73140056	     -1.12798225	     -1.66617542	      3.76326246	     -1.14987399	     -0.16225274
      1.59183333	      2.01396669	      3.20059008	     -3.15444810	      0.45936030	      1.07213384	      0.30658975	     12.22000435	     -5.55628973	     -2.57314066	    -63.12964966	     -3.29675198	    -12.34813249	     -1.85517960	      3.09319936	      8.86794296	     -1.89164319	     -5.86072621	      0.86497968	     -1.06547880	     -1.66980038	      3.67823290	     -1.08933635	     -0.30827157
      1.59600000	      2.06328251	      3.13967125	     -3.03727800	      0.46415375	      1.07273949	      0.30647511	     12.71541939	     -5.43752179	     -2.42452902	    -62.86400666	     -2.82405960	    -12.50976423	     -1.88787775	      2.61704647	      8.82736197	     -1.73316452	     -5.62300879	      0.98720978	     -1.00513296	     -1.67485459	      3.59423972	     -1.02781788	     -0.45414033
      1.60016667	      2.12188393	      3.06958324	     -2.87316362	      0.46889515	      1.07333034	      0.30633188	     13.18058811	     -5.31328020	     -2.32742424	    -62.55301004	     -2.24512190	    -12.68664791	     -1.94429081	      2.14368427	      8.77339295	     -1.58187263	     -5.41098844	      1.14955713	     -0.97060735	     -1.68728066	      3.49694849	     -0.98776776	     -0.66656609
      1.60433333	      2.12674556	      3.01774288	     -2.78072915	      0.47361189	      1.07378959	      0.30631543	     13.71866486	     -5.18355090	     -2.12649739	    -62.19382451	     -2.02072072	    -12.77202634	     -1.96153491	      1.72076429	      8.72790550	     -1.43455730	     -5.16875435	      1.19870379	     -0.90704367	     -1.69066254	      3.42085739	     -0.94935928	     -0.74214013
      1.60850000	      2.19119758	      2.97721090	     -2.64119198	      0.47838591	      1.07430568	      0.30611188	     14.16427459	     -5.10060333	     -2.02908185	    -61.83145074	     -1.35733167	    -13.01557485	     -2.02421368	      1.22247057	      8.71497553	     -1.24333494	     -4.91130554	      1.38007094	     -0.88394608	     -1.70789516	      3.36591194	     -0.88199165	     -0.96237851
      1.61266667	      2.18538241	      2.92742609	     -2.54679308	      0.48309622	      1.07468202	      0.30608972	     14.69081635	     -4.97173622	     -1.83223818	    -61.39409672	     -1.14692571	    -13.09935944	     -2.04253350	      0.80931178	      8.66927149	     -1.10100404	     -4.66310648	      1.42679234	     -0.82741363	     -1.71256627	      3.29716076	     -0.85179827	     -1.03351925
      1.61683333	      2.23393482	      2.91181041	     -2.46349668	      0.48785400	      1.07507562	      0.30590609	     15.15125062	     -4.90714072	     -1.67351669	    -60.96129163	     -0.63387045	    -13.33018670	     -2.08300942	      0.31542235	      8.68470716	     -0.88772959	     -4.36467349	      1.55952692	     -0.77963600	     -1.72430042	      3.29909189	     -0.76739447	     -1.17943301
      1.62100000	      2.23667701	      2.87690229	     -2.34469781	      0.49257614	      1.07539203	      0.30582683	     15.63849491	     -4.80458108	     -1.52681324	    -60.46431364	     -0.22457005	    -13.51281364	     -2.12444964	     -0.11252164	      8.65771630	     -0.70796390	     -4.10455875	      1.67063653	     -0.75782757	     -1.73790579	      3.25262729	     -0.73008141	     -1.31428174
      1.62516667	      2.20956308	      2.83231397	     -2.21489616	      0.49726632	      1.07563606	      0.30580379	     16.14289803	     -4.68421109	     -1.37347974	    -59.90536814	      0.01176908	    -13.61772715	     -2.14519728	     -0.49270831	      8.60657994	     -0.60188500	     -3.87643722	      1.73183687	     -0.73786216	     -1.74475159	      3.18559370	     -0.73323446	     -1.38155746
      1.62933333	      2.23510262	      2.83360621	     -2.12923055	      0.50199818	      1.07587116	      0.30563156	     16.59654648	     -4.63541854	     -1.22433353	    -59.36664129	      0.49690152	    -13.87817410	     -2.19083611	     -0.96148527	      8.63357825	     -0.37132758	     -3.57221778	      1.86806121	     -0.71523556	     -1.76040905	      3.22234885	     -0.67137522	     -1.52524675
      1.63350000	      2.21011976	      2.81742737	     -2.01277695	      0.50671617	      1.07601907	      0.30554733	     17.07975723	     -4.55598443	     -1.08511321	    -58.75928761	      0.84849483	    -14.07423703	     -2.23676214	     -1.36122251	      8.62128230	     -0.18789799	     -3.30405125	      1.97126120	     -0.71697252	     -1.77764868	      3.20766149	     -0.65706102	     -1.65260432
      1.63766667	      2.18835648	      2.80780475	     -1.89580075	      0.51141820	      1.07613092	      0.30544528	     17.54983072	     -4.48773338	     -0.95263066	    -58.11925739	      1.18049889	    -14.28193096	     -2.29097142	     -1.76243542	      8.61580926	     -0.00267195	     -3.03844624	      2.07411705	     -0.73128891	     -1.79895145	      3.21268370	     -0.64805375	     -1.78691350
      1.64183333	      2.13992095	      2.79775399	     -1.77841982	      0.51609015	      1.07616655	      0.30541997	     18.03728387	     -4.40987853	     -0.80663248	    -57.42943019	      1.36246514	    -14.38824587	     -2.31429502	     -2.11779826	      8.59683752	      0.09495157	     -2.80373381	      2.12673153	     -0.72044051	     -1.80776884	      3.15450754	     -0.67529910	     -1.84244680
      1.64600000	      2.12284100	      2.81551985	     -1.69805127	      0.52082109	      1.07618147	      0.30527809	     18.48854805	     -4.37707343	     -0.66738636	    -56.74167630	      1.71619140	    -14.66353831	     -2.36738945	     -2.54035754	      8.63000551	      0.32768629	     -2.49713327	      2.25027833	     -0.72245758	     -1.82827111	      3.24397636	     -0.64565159	     -1.96366661
      1.65016667	      2.06908741	      2.82031149	     -1.57910874	      0.52552461	      1.07611724	      0.30517436	     18.95421453	     -4.32784611	     -0.55265503	    -55.99672465	      1.98087427	    -14.91665593	     -2.43366209	     -2.90581636	      8.63385873	      0.52823110	     -2.23384716	      2.36213097	     -0.76050234	     -1.85575663	      3.27738039	     -0.65015639	     -2.09475573
      1.65433333	      2.01614304	      2.83926583	     -1.48047962	      0.53022065	      1.07601208	      0.30509859	     19.41526750	     -4.29174149	     -0.42599030	    -55.22178959	      2.16884332	    -15.11777986	     -2.49173358	     -3.26985526	      8.65098673	      0.69765197	     -1.96712232	      2.44707440	     -0.77554480	     -1.88011489	      3.30667432	     -0.67185730	     -2.19570717
      1.65850000	      1.94079911	      2.85797150	     -1.37618044	      0.53490945	      1.07583304	      0.30504275	     19.88624109	     -4.25497921	     -0.31071602	    -54.41227383	      2.29078486	    -15.21135558	     -2.51314142	     -3.59288753	      8.66262573	      0.75770873	     -1.73205005	      2.49654543	     -0.76895652	     -1.88849212	      3.24929950	     -0.72070172	     -2.23003738
      1.66266667	      1.90844120	      2.88892846	     -1.30196226	      0.53961410	      1.07566987	      0.30496998	     20.30044733	     -4.23341009	     -0.17668408	    -53.57599146	      2.50339563	    -15.50371646	     -2.57252689	     -3.99353105	      8.69542347	      0.99683469	     -1.43870716	      2.62628059	     -0.76668612	     -1.91194794	      3.39182843	     -0.71650822	     -2.32369145
      1.66683333	      1.83153148	      2.91924189	     -1.18837182	      0.54432819	      1.07541013	      0.30487187	     20.74225481	     -4.22061151	     -0.09397023	    -52.70328731	      2.62942590	    -15.78563114	     -2.64813323	     -4.32940604	      8.71791549	      1.19503836	     -1.18553027	      2.74941882	     -0.79567770	     -1.94381228	      3.45459542	     -0.74312679	     -2.43008621
      1.67100000	      1.74755943	      2.96391150	     -1.09204567	      0.54896792	      1.07508322	      0.30477516	     21.19500739	     -4.22412825	     -0.01030387	    -51.81510776	      2.70964025	    -15.85440234	     -2.66651644	     -4.63011201	      8.75913505	      1.21806774	     -0.96209197	      2.79195502	     -0.78851736	     -1.95108744	      3.38509189	     -0.80572035	     -2.45170844
      1.67516667	      1.69745802	      3.00269617	     -1.01555540	      0.55370617	      1.07479019	      0.30471934	     21.58162560	     -4.21459499	      0.09639269	    -50.87740705	      2.80003341	    -16.14434357	     -2.73670980	     -5.00942514	      8.79126247	      1.45796827	     -0.68461096	      2.93179624	     -0.77318921	     -1.97936465	      3.55383023	     -0.82570803	     -2.53530170
      1.67933333	      1.60486880	      3.05882570	     -0.92449593	      0.55833400	      1.07437143	      0.30466248	     22.01801536	     -4.22826653	      0.17555410	    -49.93219273	      2.86981559	    -16.21950860	     -2.75630540	     -5.29614830	      8.83795381	      1.48532853	     -0.47559075	      2.98133491	     -0.76464055	     -1.98698384	      3.48615615	     -0.89423108	     -2.55435429
      1.68350000	      1.48494767	      3.08649969	     -0.74999898	      0.56312127	      1.07395421	      0.30448413	     22.42595066	     -4.24568544	      0.14462475	    -48.91077201	      2.80815323	    -16.70928518	     -2.90948347	     -5.58942073	      8.84332656	      1.79941023	     -0.24737816	      3.22045050	     -0.79274567	     -2.05268837	      3.70587080	     -0.87719223	     -2.72125862
      1.68766667	      1.40442940	      3.16297809	     -0.70170120	      0.56774807	      1.07345947	      0.30447484	     22.83484389	     -4.27378956	      0.24223856	    -47.92578453	      2.86969585	    -16.74492854	     -2.92948031	     -5.89363343	      8.91450130	      1.82869808	     -0.02396511	      3.24656189	     -0.76116492	     -2.06103942	      3.66262979	     -0.98009135	     -2.73091862
      1.69183333	      1.33186812	      3.23418149	     -0.65411205	      0.57241820	      1.07296652	      0.30448711	     23.21151144	     -4.29561882	      0.33120757	    -46.89963598	      2.92476510	    -16.80330636	     -2.95310505	     -6.21402223	      8.97582882	      1.89946678	      0.20294052	      3.30178485	     -0.71828879	     -2.07007245	      3.68687250	     -1.07921027	     -2.73853241
      1.69600000	      1.25505917	      3.30155331	     -0.59487250	      0.57712975	      1.07243482	      0.30447892	     23.57045691	     -4.32078005	      0.39082962	    -45.84304875	      2.96730318	    -16.87701329	     -2.97994581	     -6.53423245	      9.03065011	      1.98811358	      0.43004588	      3.38427445	     -0.67146372	     -2.07981847	      3.74103050	     -1.16788812	     -2.74632080
      1.70016667	      1.19546399	      3.36630097	     -0.47320723	      0.58187102	      1.07193478	      0.30430370	     23.87798305	     -4.38393470	      0.34626675	    -44.74396730	      2.90049751	    -17.07038528	     -3.06161103	     -6.88351303	      9.08240725	      2.22820653	      0.65269890	      3.59516913	     -0.58257730	     -2.11202353	      3.96858814	     -1.18190886	     -2.79876493
